<svg id="Layer_1" data-name="Layer 1" xmlns="http://www.w3.org/2000/svg" viewBox="0 0 64 64"><path d="M47.58,62.75H31.86a5.4,5.4,0,0,1-5.4-5.4V25.51A2.52,2.52,0,0,1,29,23H50.46A2.52,2.52,0,0,1,53,25.51V57.35A5.4,5.4,0,0,1,47.58,62.75ZM29,24.49a1,1,0,0,0-1,1V57.35a3.91,3.91,0,0,0,3.9,3.9H47.58a3.91,3.91,0,0,0,3.9-3.9V25.51a1,1,0,0,0-1-1Z"/><path d="M49.63,24.49H29.81a.75.75,0,0,1-.75-.75V22.17A3.91,3.91,0,0,1,33,18.26h13.5a3.91,3.91,0,0,1,3.91,3.91v1.57A.75.75,0,0,1,49.63,24.49ZM30.56,23H48.88v-.82a2.41,2.41,0,0,0-2.41-2.41H33a2.41,2.41,0,0,0-2.41,2.41Z"/><path d="M44,19.76H35.46a.75.75,0,0,1-.75-.75V12.79a3.46,3.46,0,0,1,3.46-3.45h3.1a3.46,3.46,0,0,1,3.46,3.45V19A.76.76,0,0,1,44,19.76Zm-7.77-1.5h7V12.79a2,2,0,0,0-2-1.95h-3.1a2,2,0,0,0-2,1.95Z"/><path d="M39.72,46.42a3.55,3.55,0,1,1,3.55-3.55A3.55,3.55,0,0,1,39.72,46.42Zm0-5.6a2.05,2.05,0,1,0,2.05,2A2.05,2.05,0,0,0,39.72,40.82Z"/><path d="M39.72,51.26a8.39,8.39,0,1,1,8.39-8.39A8.39,8.39,0,0,1,39.72,51.26Zm0-15.28a6.89,6.89,0,1,0,6.89,6.89A6.9,6.9,0,0,0,39.72,36Z"/><path d="M29.17,14.39H25a.75.75,0,0,1,0-1.5h4.16a.75.75,0,0,1,0,1.5Z"/><path d="M22.68,14.39H19.5a.75.75,0,0,1,0-1.5h3.18a.75.75,0,0,1,0,1.5Zm-6.36,0h-.26a.75.75,0,0,1,0-1.5h.26a.75.75,0,0,1,0,1.5Z"/><path d="M13.85,14.39H11.77a.75.75,0,0,1,0-1.5h2.08a.75.75,0,1,1,0,1.5Z"/><path d="M29.17,10.51a.8.8,0,0,1-.3-.06L26.13,9.23a.75.75,0,1,1,.61-1.37l2.74,1.22a.75.75,0,0,1-.31,1.43ZM23.69,8.07a.66.66,0,0,1-.3-.07L20.65,6.78a.75.75,0,0,1-.38-1,.76.76,0,0,1,1-.38L24,6.63a.76.76,0,0,1,.38,1A.77.77,0,0,1,23.69,8.07ZM18.21,5.63a.82.82,0,0,1-.3-.07L15.17,4.34A.75.75,0,1,1,15.78,3l2.74,1.22a.75.75,0,0,1,.38,1A.76.76,0,0,1,18.21,5.63ZM12.73,3.18a.8.8,0,0,1-.3-.06l-1-.43a.76.76,0,0,1-.38-1,.77.77,0,0,1,1-.38l1,.44a.75.75,0,0,1-.31,1.43Z"/><path d="M11.77,26a.76.76,0,0,1-.69-.45.75.75,0,0,1,.38-1l1-.43a.76.76,0,0,1,1,.38.75.75,0,0,1-.38,1l-1,.43A.66.66,0,0,1,11.77,26Zm3.7-1.65a.75.75,0,0,1-.3-1.44l2.74-1.22a.75.75,0,0,1,.61,1.37l-2.74,1.22A.67.67,0,0,1,15.47,24.39ZM21,21.94a.74.74,0,0,1-.68-.44.75.75,0,0,1,.38-1l2.74-1.23a.77.77,0,0,1,1,.38.74.74,0,0,1-.38,1l-2.74,1.23A.81.81,0,0,1,21,21.94Zm5.48-2.44a.75.75,0,0,1-.3-1.44l2.74-1.22a.75.75,0,0,1,.61,1.37l-2.74,1.22A.67.67,0,0,1,26.43,19.5Z"/><path d="M37.77,15.81H35.46a.75.75,0,0,1,0-1.5h2.31a.75.75,0,0,1,0,1.5Z"/></svg>