<?xml version="1.0" ?><svg xmlns="http://www.w3.org/2000/svg" viewBox="0 0 32 32"><defs><style>.cls-1{fill:#f95631;}</style></defs><g id="_2" data-name="2"><path d="M29,5H25a1,1,0,0,0,0,2h3v4.15L16.84,13A1,1,0,0,0,16,14v2a1,1,0,0,0-1,.92l-.83,10a2.84,2.84,0,1,0,5.66,0l-.83-10A1,1,0,0,0,18,16V14.85L29.16,13A1,1,0,0,0,30,12V6A1,1,0,0,0,29,5ZM17.62,27.73a.86.86,0,0,1-1.24,0,.84.84,0,0,1-.22-.64L16.92,18h.16l.76,9.09A.84.84,0,0,1,17.62,27.73Z"/><path d="M5,7H3A1,1,0,0,1,3,5H5A1,1,0,0,1,5,7Z"/><path class="cls-1" d="M24.07,10H5.93A1.84,1.84,0,0,1,4,8.29V3.71A1.84,1.84,0,0,1,5.93,2H24.07A1.84,1.84,0,0,1,26,3.71V8.29A1.84,1.84,0,0,1,24.07,10ZM6,8H24V4H6Z"/><path class="cls-1" d="M19,18H15a1,1,0,0,1,0-2h4a1,1,0,0,1,0,2Z"/></g></svg>